<svg width="213" height="69" xmlns="http://www.w3.org/2000/svg" xmlns:xlink="http://www.w3.org/1999/xlink" xml:space="preserve" overflow="hidden"><defs><clipPath id="clip0"><rect x="0" y="0" width="213" height="69"/></clipPath></defs><g clip-path="url(#clip0)"><path d="M65.2663 17.5473 65.2663 34.5225 76.7152 34.5225 78.1114 31.1536 69.0045 31.1536 69.0045 17.5473 65.2663 17.5473Z" fill="#E22333" transform="matrix(1.04492 0 0 1 0.174331 0)"/><path d="M90.5287 27.4198 88.2768 21.9116 86.0248 27.4198ZM86.5923 17.5653 90.0333 17.5653 97.3116 34.5405 93.4112 34.5405 91.8799 30.7212 84.6736 30.7212 83.1243 34.5225 79.314 34.5225Z" fill="#E22333" transform="matrix(1.04492 0 0 1 0.174331 0)"/><path d="M107.999 20.9928 102.667 20.9928 102.667 17.5473 117.061 17.5473 117.061 20.9928 111.733 20.9928 111.733 34.5225 107.999 34.5225 107.999 20.9928Z" fill="#E22333" transform="matrix(1.04492 0 0 1 0.174331 0)"/><path d="M127.587 25.7939C128.352 25.8477 129.11 25.6149 129.713 25.1409 130.21 24.6993 130.481 24.0574 130.451 23.3933L130.451 23.3483C130.497 22.6573 130.207 21.9866 129.672 21.5467 129.044 21.1058 128.285 20.8913 127.519 20.9387L123.808 20.9387 123.808 25.7939ZM120.07 17.5653 127.83 17.5653C129.983 17.5653 131.627 18.1418 132.784 19.2903 133.767 20.3283 134.285 21.7222 134.217 23.1501L134.217 23.1997C134.278 24.4039 133.928 25.5931 133.226 26.5731 132.552 27.4371 131.646 28.0916 130.614 28.4602L134.762 34.5225 130.393 34.5225 126.74 29.0953 123.804 29.0953 123.804 34.5225 120.07 34.5225Z" fill="#E22333" transform="matrix(1.04492 0 0 1 0.174331 0)"/><path d="M145.4 31.3743C146.107 31.3811 146.808 31.24 147.458 30.9599 148.075 30.7019 148.628 30.3132 149.08 29.8204 149.528 29.3264 149.88 28.7538 150.12 28.1315 150.374 27.4815 150.501 26.7889 150.494 26.0912L150.494 26.0371C150.499 25.3337 150.372 24.6355 150.12 23.9789 149.068 21.3187 146.059 20.015 143.399 21.067 143.36 21.0823 143.321 21.0981 143.283 21.1144 142.675 21.3787 142.129 21.7668 141.68 22.2539 141.233 22.7472 140.881 23.3181 140.639 23.9383 140.384 24.5928 140.256 25.2897 140.261 25.9921L140.261 26.0371C140.257 26.7423 140.386 27.442 140.639 28.0999 140.877 28.7307 141.24 29.3068 141.707 29.7934 142.66 30.8194 144.004 31.3937 145.404 31.3743M145.355 34.8153C144.12 34.8265 142.895 34.5922 141.752 34.1262 140.693 33.6893 139.727 33.055 138.905 32.257 138.101 31.4729 137.466 30.5316 137.041 29.4916 136.59 28.4149 136.362 27.2583 136.37 26.0912L136.37 26.0371C136.36 24.8675 136.592 23.7084 137.05 22.6322 137.944 20.5029 139.651 18.8185 141.792 17.9526 142.942 17.4811 144.175 17.2453 145.418 17.259 146.653 17.2456 147.879 17.4815 149.021 17.9526 150.079 18.3867 151.044 19.0197 151.863 19.8172 152.663 20.6044 153.298 21.543 153.732 22.5781 154.179 23.6605 154.406 24.8211 154.399 25.9921L154.399 26.0371C154.407 27.2067 154.176 28.3655 153.719 29.4421 153.277 30.4868 152.638 31.4365 151.836 32.239 151.017 33.051 150.045 33.6925 148.976 34.1262 147.832 34.5916 146.608 34.8258 145.373 34.8153" fill="#E22333" transform="matrix(1.04492 0 0 1 0.174331 0)"/><path d="M164.879 31.2482C165.556 31.2809 166.228 31.1249 166.821 30.7978 167.297 30.5018 167.575 29.9705 167.546 29.4106L167.546 29.361C167.566 28.8301 167.321 28.3238 166.893 28.0099 166.26 27.625 165.523 27.4501 164.785 27.5099L160.466 27.5099 160.466 31.2437ZM163.889 24.4112C164.569 24.4446 165.246 24.2986 165.852 23.9879 166.329 23.7102 166.61 23.1878 166.577 22.6367L166.577 22.5871C166.605 22.0761 166.367 21.5871 165.947 21.2945 165.407 20.9618 164.778 20.8045 164.145 20.8441L160.461 20.8441 160.461 24.4473ZM156.804 17.5653 164.672 17.5653C166.627 17.5653 168.103 18.0667 169.1 19.0696 169.859 19.8285 170.274 20.8654 170.248 21.9386L170.248 21.9881C170.255 22.4231 170.193 22.8563 170.063 23.2717 169.952 23.6286 169.791 23.9682 169.586 24.2806 169.391 24.572 169.159 24.837 168.897 25.0688 168.639 25.302 168.355 25.5045 168.05 25.6723 168.934 25.979 169.73 26.4987 170.365 27.1856 170.966 27.9366 171.267 28.883 171.212 29.843L171.212 29.8925C171.229 30.5976 171.075 31.2964 170.761 31.9283 170.465 32.5148 170.025 33.0168 169.482 33.3875 168.869 33.7879 168.189 34.0733 167.474 34.2298 166.621 34.4322 165.747 34.529 164.87 34.518L156.804 34.518Z" fill="#E22333" transform="matrix(1.04492 0 0 1 0.174331 0)"/><path d="M173.626 17.5473 186.404 17.5473 186.404 20.8711 177.31 20.8711 177.31 24.3166 183.958 24.3166 183.958 27.6405 177.31 27.6405 177.31 31.2076 186.525 31.2076 186.525 34.5225 173.626 34.5225 173.626 17.5473Z" fill="#E22333" transform="matrix(1.04492 0 0 1 0.174331 0)"/><path d="M67.0273 47.0389 67.0273 40.4452 65.0275 40.4452 65.0275 47.1065C65.0275 50.3988 66.7886 52.2139 69.9819 52.2139 73.1751 52.2139 75.0172 50.3718 75.0172 47.0209L75.0172 40.4452 73.0265 40.4452 73.0265 47.1245C73.0265 49.2278 71.9321 50.4304 70.0224 50.4304 68.1127 50.4304 67.0228 49.1918 67.0228 47.0389" transform="matrix(1.04492 0 0 1 0.174331 0)"/><path d="M79.6022 40.4452 79.6022 52.0202 81.5659 52.0202 81.5659 43.5213 88.0381 52.0202 89.8081 52.0202 89.8081 40.4452 87.8489 40.4452 87.8489 48.6963 81.5659 40.4452 79.6022 40.4452Z" transform="matrix(1.04492 0 0 1 0.174331 0)"/><path d="M95.3209 40.4452 97.3161 40.4452 97.3161 52.0202 95.3209 52.0202Z" transform="matrix(1.04492 0 0 1 0.174331 0)"/><path d="M103.761 40.4452 101.55 40.4452 106.229 52.0202 108.139 52.0202 112.823 40.4452 110.675 40.4452 107.22 49.7548 103.761 40.4452Z" transform="matrix(1.04492 0 0 1 0.174331 0)"/><path d="M118.521 47.0389 124.313 47.0389 124.313 45.3364 118.521 45.3364 118.521 42.1431 125.101 42.1431 125.101 40.4452 116.543 40.4452 116.543 52.0202 125.186 52.0202 125.186 50.3223 118.521 50.3223 118.521 47.0389Z" transform="matrix(1.04492 0 0 1 0.174331 0)"/><path d="M136.703 47.6514C138.201 47.1772 139.189 45.7485 139.103 44.1789 139.15 43.2222 138.809 42.2871 138.158 41.5847 137.41 40.8415 136.257 40.4452 134.825 40.4452L129.564 40.4452 129.564 52.0202 131.564 52.0202 131.564 48.0883 134.217 48.0883 136.842 52.0202 139.171 52.0202 136.289 47.8091ZM131.564 46.3903 131.564 42.1792 134.6 42.1792C136.149 42.1792 137.072 42.9629 137.072 44.2825 137.072 45.6022 136.122 46.3903 134.667 46.3903Z" transform="matrix(1.04492 0 0 1 0.174331 0)"/><path d="M148.179 45.3589C146.211 44.8545 145.269 44.5618 145.269 43.4087 145.269 42.6656 145.864 41.945 147.197 41.945 148.315 41.9942 149.394 42.3701 150.3 43.0259L151.332 41.5531C150.146 40.6981 148.717 40.248 147.256 40.2695 144.895 40.2695 143.31 41.6207 143.31 43.6204 143.31 45.7373 144.481 46.3903 147.107 47.0659 149.003 47.5524 149.85 47.9397 149.85 48.9666 149.85 49.7322 149.291 50.5159 147.728 50.5159 146.408 50.4903 145.137 50.0133 144.125 49.1648L142.972 50.5475C144.31 51.6216 145.976 52.2035 147.692 52.1959 150.255 52.1959 151.845 50.8762 151.845 48.7459 151.845 46.9443 150.863 46.0435 148.215 45.3634" transform="matrix(1.04492 0 0 1 0.174331 0)"/><path d="M156.191 40.4452 158.187 40.4452 158.187 52.0202 156.191 52.0202Z" transform="matrix(1.04492 0 0 1 0.174331 0)"/><path d="M166.375 52.0202 168.37 52.0202 168.37 42.2287 172.108 42.2287 172.108 40.4452 162.636 40.4452 162.636 42.2287 166.375 42.2287 166.375 52.0202Z" transform="matrix(1.04492 0 0 1 0.174331 0)"/><path d="M184.152 40.4452 180.963 45.7057 177.837 40.4452 175.522 40.4452 179.949 47.4307 179.949 52.0202 181.949 52.0202 181.949 47.3722 186.377 40.4452 184.152 40.4452Z" transform="matrix(1.04492 0 0 1 0.174331 0)"/><path d="M54.7586 26.3434C54.6514 26.5381 54.4965 26.7023 54.3082 26.8208 55.0153 26.8208 54.7586 26.3434 54.7586 26.3434" transform="matrix(1.04492 0 0 1 0.174331 0)"/><path d="M41.9089 45.5166C42.0004 45.6981 42.1368 45.853 42.3053 45.967 42.6365 46.1363 42.9489 46.3403 43.2376 46.575 43.3277 46.6651 43.4223 46.8047 43.3727 46.8407 43.3232 46.8768 43.1971 46.8407 42.9223 46.584 42.6476 46.3273 42.5035 46.4804 42.4719 46.6381 42.4865 46.9263 42.4865 47.2146 42.4719 47.5028 42.4269 47.7911 42.2828 47.8316 42.2963 47.5028 42.3098 47.174 42.1296 46.4399 41.8099 46.4669 41.5992 46.5079 41.427 46.6597 41.3595 46.8633 41.2829 47.0209 41.1658 47.174 41.2018 47.0434 41.2123 46.8042 41.1644 46.5664 41.0622 46.3498 40.8911 45.9805 40.837 45.9399 40.6388 45.8994 40.4407 45.8589 40.4226 45.7012 40.7649 45.5526 41.0979 45.3643 41.5003 45.3441 41.8504 45.4986M56.7133 26.9604C56.6142 25.9921 56.0963 25.9155 55.5873 25.7084 55.0784 25.5012 54.1641 25.258 53.8263 25.0373 53.4854 24.8586 53.1142 24.7456 52.7319 24.704 52.3265 24.6409 51.3041 24.704 50.8357 24.6319 50.3673 24.5599 49.6467 24.4202 49.4845 24.5238 49.2224 25.0417 48.7409 25.4139 48.1739 25.5372 47.4668 25.7579 46.5705 25.9876 45.9219 26.1723 45.9219 25.8345 45.958 24.8211 46.8227 23.3393 47.9037 21.5377 48.2054 20.9252 47.7235 20.4523 47.2416 19.9794 45.0662 21.0648 45.0662 21.0648 45.0995 20.8922 45.122 20.7177 45.1337 20.5424 45.7598 20.173 48.1334 18.8534 49.1017 19.3939 50.2232 20.0199 48.8495 21.7584 48.7234 21.9206 48.5973 22.0827 47.0704 24.3662 46.7642 25.294L47.4037 25.1183C47.4037 25.1183 48.8225 22.8394 49.3134 22.2358 49.8043 21.6323 50.9393 19.8983 50.0295 19.1326 49.1197 18.367 47.6514 18.6822 45.1518 20.2766 45.1788 19.4479 45.0166 18.2048 43.8727 17.7725 41.999 17.0563 35.626 17.5653 28.3747 23.3438 26.4073 24.782 24.5647 26.3836 22.8664 28.1315 20.3037 30.7888 17.9121 33.5362 18.6777 33.9595 19.5155 34.4099 21.6864 31.9778 21.9431 31.7076 21.9431 31.7076 24.2221 31.8472 27.073 29.4061 28.2143 30.0263 29.5535 30.1734 30.8023 29.8159 30.8023 29.8159 29.9465 31.9418 32.4822 31.7661 32.4822 31.7661 32.2661 32.802 33.1263 32.6264 33.1263 32.6264 28.1134 35.5629 28.199 35.68 28.2846 35.7971 30.7663 34.7027 31.9823 34.0856 32.7119 33.7163 33.1488 33.3605 33.7343 33.2659 35.6965 33.0524 37.5941 32.4393 39.3102 31.4644 42.2242 29.87 43.1565 27.8117 43.2916 26.3344 43.2916 26.3344 42.5485 27.0055 42.3638 26.983 42.1792 26.9604 42.4809 26.1993 42.5575 25.7084 42.6341 25.2174 43.2196 23.3078 42.6746 23.5375 42.1296 23.7672 40.4226 25.4696 39.7786 24.3797 39.3282 23.5735 40.5848 22.0602 40.5848 22.0602 40.5848 22.0602 36.6439 24.2491 35.9187 23.1231 35.2747 22.1232 36.3691 21.3215 36.3691 21.3215 33.2825 22.617 30.3316 24.2147 27.5595 26.0912 23.1051 29.1043 20.4208 32.8065 19.5515 32.9507 18.6822 33.0948 26.5461 23.7131 35.027 20.3397 39.6029 18.5111 42.6836 18.2724 43.9132 18.8489 44.6338 19.1822 44.5482 20.1055 44.5482 20.3307 44.5482 20.3307 43.9087 26.3884 44.9986 27.9063 44.9986 27.9063 45.8994 27.3973 46.6786 27.064 46.6786 27.064 46.3183 27.064 46.4984 26.7352 46.593 26.5551 46.8858 26.4605 47.3046 26.3299 47.8721 26.1497 48.8495 26.0732 49.3719 25.6948 49.8944 25.3165 49.8223 25.1634 50.0971 25.0733 50.629 25.1693 51.169 25.2116 51.7095 25.1994 52.1716 25.1187 52.6436 25.1187 53.1057 25.1994 53.7988 25.5293 54.5154 25.8078 55.2495 26.0326 55.9251 26.1587 56.0017 26.2083 56.2269 26.6046 56.3881 26.8968 56.4805 27.2218 56.4971 27.555L56.4701 27.555C56.0107 27.3927 55.5243 27.3223 55.0379 27.3478 55.2946 27.3748 55.5513 27.4829 55.173 27.573 54.7947 27.6631 53.6777 28.0234 53.6777 28.0234 53.9497 27.7301 54.2835 27.5009 54.655 27.3523 54.6821 27.3523 53.3039 27.3523 53.3039 27.3523 53.5741 27.097 53.7529 26.7599 53.8128 26.393 53.9339 26.373 54.0529 26.3429 54.1686 26.3029 54.5379 26.1768 54.1281 26.0777 53.3309 26.0462 52.8521 26.027 52.3756 25.9774 51.9031 25.8975L51.7005 26.2488C51.9297 26.1549 52.1792 26.1193 52.4256 26.1452 52.4265 26.423 52.6359 26.6558 52.912 26.6857 53.0503 26.7031 53.1908 26.6813 53.3174 26.6227 53.1687 27.0734 52.6958 27.3315 52.2364 27.2127 51.945 27.1338 51.6982 26.9405 51.5518 26.6767 51.5518 26.6767 51.0744 27.6586 50.624 27.8973 50.1736 28.136 47.8316 29.2079 46.8678 30.3924 45.9039 31.577 45.5166 31.9778 44.7779 32.194 44.0393 32.4102 43.9492 32.4147 43.8546 32.5183 43.7601 32.6219 42.9539 33.8694 40.4452 35.2206 39.639 35.671 39.3057 35.6395 39.1706 35.5044 38.9454 35.2792 39.2336 34.9189 39.076 34.9279 38.7061 34.9845 38.3492 35.1065 38.0221 35.2882 37.1978 35.6395 36.6709 35.9367 36.0493 35.9908 35.4278 36.0448 34.9054 35.8602 34.8648 35.0044 34.8648 35.0044 34.8378 35.0044 34.4144 35.1351 33.9911 35.2657 31.6355 36.3691 30.7798 36.3781 30.3294 36.3781 31.1671 35.3152 31.1671 35.3152 31.1671 35.3152 28.9151 36.6664 28.4377 36.8781 27.9603 37.0898 26.5731 37.6753 27.1226 36.243 24.5921 37.7202 21.8968 38.8948 19.0921 39.7426 17.5382 40.22 17.1644 40.0128 17.1779 40.3956 17.1779 40.5758 17.3536 40.6433 17.5878 40.6569 18.0852 40.6891 18.5845 40.6725 19.0786 40.6073 20.5758 40.3767 22.0541 40.0364 23.5014 39.5894 25.7219 38.8778 26.3839 38.1166 27.9243 38.5445 29.8835 39.085 30.8563 38.2743 30.8563 38.2743 30.8563 38.2743 31.1536 38.8057 32.3606 38.7832 32.3606 38.7832 33.4641 39.621 35.4773 39.3012 36.0984 39.5795 36.7743 39.7135 37.4546 39.693 37.5638 40.2673 37.6106 40.8517 37.5942 41.436 37.5221 42.4134 37.5942 42.6881 38.1392 42.2062 38.3893 42.8954 38.5969 43.5994 38.7607 44.314 38.7967 44.7374 38.7877 44.9986 39.0129 45.0257 39.1385 45.0423 39.2657 45.0423 39.3913 45.0257 39.5302 45.2995 39.7849 45.4963 40.0849 45.5616 40.0849 45.5616 40.1344 45.7238 39.2877 46.0571 38.8643 46.2237 38.477 46.62 38.6256 46.8137 38.6256 46.8137 38.9769 46.8137 39.3552 46.8137 39.6537 46.5408 40.0908 46.4831 40.4497 46.6696 40.6687 46.7682 40.7889 47.0069 40.7379 47.2416 40.7175 47.3195 40.6824 47.3929 40.6343 47.4578 40.6073 47.5028 40.5443 47.5839 40.4722 47.7055 40.4001 47.8271 40.256 48.1153 40.2965 48.1964 40.3371 48.2775 40.6659 48.7414 39.8461 48.845 39.8461 48.845 39.8867 49.0071 40.1389 48.9936 40.3911 48.9801 41.0397 48.5792 41.0397 48.3766 41.2464 48.1307 41.4135 47.8541 41.5351 47.5569 41.7243 47.0749 41.7468 47.0029 41.8099 47.0749 41.9837 47.3835 42.0228 47.7501 41.9179 48.0883 41.7873 48.4081 41.6747 48.4711 41.7783 48.6108 41.8332 48.659 41.892 48.7027 41.954 48.7414 42.0215 48.7909 42.0305 48.9125 41.8324 49.1062 41.4901 49.453 42.4224 49.0431 42.553 48.7189 42.553 48.7189 42.8503 48.3766 42.7287 47.0839 42.7287 47.0839 42.7287 46.9443 42.8773 47.0479 43.1115 47.1767 43.2765 47.4028 43.3277 47.6649 43.3277 47.9037 43.2241 48.1153 43.3862 48.1964 43.5484 48.2775 43.5574 48.5297 43.4943 48.6873 43.4313 48.845 43.071 48.89 43.1565 48.917 43.5792 48.9643 43.9604 48.6603 44.0079 48.2378 44.0101 48.218 44.0116 48.1982 44.0123 48.1784 44.129 47.2925 43.6911 46.4255 42.9088 45.994 42.008 45.449 41.7288 45.1788 41.5892 41.9134 41.6048 40.7775 41.7806 39.6494 42.1116 38.5625L42.1116 38.5625C42.4089 37.4816 42.7692 36.8781 42.7872 36.9997 42.8232 37.2159 42.5305 38.0356 42.508 38.4454 43.6842 37.8425 44.82 37.164 45.9084 36.4142 46.3516 36.0543 46.7534 35.6465 47.1065 35.1981 47.138 35.1576 47.7866 34.5225 48.0433 32.8155L49.0431 30.8563C49.0431 30.8563 49.4395 31.5139 49.7728 31.1176 50.1061 30.7212 50.7997 29.5862 50.9078 29.5727 50.9078 29.5727 51.0699 30.0862 51.3086 29.9375 51.5473 29.7889 51.6419 29.2394 52.2544 28.9467 52.8017 28.7094 53.3629 28.5048 53.9344 28.3341 53.9344 28.3341 56.353 27.7351 56.4386 27.9153 56.4962 28.1113 56.5264 28.3145 56.5287 28.5188 56.7768 28.0526 56.8687 27.5188 56.7899 26.9965" transform="matrix(1.04492 0 0 1 0.174331 0)"/><path d="M27.9243 39.0535C27.2667 38.8057 26.3119 39.0535 25.3706 39.4678 24.4292 39.8822 19.9028 41.4135 17.3176 41.2694 17.3176 41.2694 17.7004 41.8549 19.2813 42.1071 19.2813 42.1071 19.1507 43.0079 20.709 42.6521 22.2674 42.2963 27.8522 39.8056 29.0277 39.139 28.6613 39.2408 28.2707 39.2105 27.9243 39.0535" transform="matrix(1.04492 0 0 1 0.174331 0)"/><path d="M31.9463 39.2606C31.4409 39.291 30.9425 39.1303 30.5501 38.8102L25.0102 41.6747C25.0102 41.6747 22.479 42.8548 22.97 43.1565 22.97 43.1565 23.7582 43.6069 25.5282 42.9178 27.2982 42.2287 32.2841 39.4633 32.2841 39.4633 32.2841 39.4633 31.9913 39.2606 31.9733 39.2606" transform="matrix(1.04492 0 0 1 0.174331 0)"/><path d="M34.2973 39.7696C33.8654 39.7981 33.4328 39.7224 33.0362 39.5489 33.0362 39.5489 30.0456 41.4495 29.4826 41.7558 28.9196 42.0621 28.0279 42.4224 29.0322 42.58 30.0366 42.7377 31.068 42.6341 32.7435 41.1883 33.2943 40.7445 33.8206 40.2708 34.3198 39.7696" transform="matrix(1.04492 0 0 1 0.174331 0)"/><path d="M44.877 45.5616C45.4625 45.5616 46.7777 46.4354 46.7552 46.539 46.7326 46.6426 46.2642 46.4174 46.1291 46.3633 45.994 46.3093 45.7958 46.2867 45.949 46.5029 46.1206 46.7565 46.2413 47.0412 46.3048 47.3407 46.3048 47.4443 46.1967 47.3407 46.1967 47.3407 46.0399 46.9047 45.7292 46.5412 45.3229 46.3183 45.0752 46.2237 44.9986 46.2822 44.9851 46.4534 44.9716 46.6245 45.0617 46.9623 44.868 46.4804 44.6898 46.0971 44.4189 45.7643 44.0798 45.5121 43.9402 45.422 44.0033 45.3229 44.0033 45.3229 44.085 45.2594 44.1902 45.2351 44.2915 45.2554 44.5085 45.2986 44.7104 45.3981 44.877 45.5436M43.7961 38.3373C43.2061 38.6526 42.4719 38.9769 42.4719 38.9769 42.2796 39.9553 42.213 40.9542 42.2738 41.9495 42.3638 44.4401 42.6341 45.1337 43.4448 45.6022 44.2096 45.9913 44.7202 46.7471 44.796 47.6019 44.796 47.9217 44.7554 48.0027 44.859 48.1153 44.9626 48.2279 44.9536 48.3 44.832 48.5162 44.7104 48.7324 44.3816 48.7909 44.5032 48.8089 44.8141 48.8634 45.1207 48.6923 45.2373 48.3991 45.431 47.9487 45.6517 47.719 45.2824 46.7777 45.2824 46.7777 45.7328 46.7056 45.8814 47.5163 45.985 48.0343 45.8228 48.2234 46.2372 48.3721 46.2372 48.3721 46.3003 48.5567 46.0661 48.8225 45.8319 49.0882 46.1381 48.9711 46.3003 48.89 46.6236 48.6887 46.7993 48.3171 46.7507 47.9397 46.6908 47.5037 46.5367 47.0857 46.3003 46.7146 46.4921 46.7754 46.6534 46.9074 46.7507 47.0839 46.9173 47.3812 46.8948 47.5343 47.3091 47.5343 47.4267 47.6442 47.4952 47.7969 47.4983 47.9577 47.4983 48.246 47.156 48.4486 47.2731 48.4081 47.3902 48.3676 48.1739 48.0928 47.5794 47.111 47.4997 46.8083 47.2992 46.5511 47.0254 46.3993 46.575 46.1606 46.003 45.4986 44.9581 45.3139 44.7275 45.0774 44.5346 44.8072 44.3861 44.5122 44.4209 44.4335 44.4495 44.3522 44.4717 44.269 44.4942 44.1519 43.7916 40.5668 45.4941 37.3555 45.4941 37.3555 44.3501 38.0221 43.7601 38.3328" transform="matrix(1.04492 0 0 1 0.174331 0)"/><path d="M32.9191 47.9712 34.1757 48.4847C34.1435 48.9567 34.3605 49.4111 34.7477 49.6827 34.6619 49.9174 34.5043 50.1191 34.2973 50.2592 34.2208 50.3178 34.1577 50.3313 34.1757 50.3538 34.1937 50.3763 34.2433 50.3538 34.2928 50.3268 35.4909 49.8764 35.608 48.7549 35.5539 47.9892 35.525 47.5469 35.3227 47.1344 34.9909 46.8407 34.9909 46.8407 37.0087 47.12 37.7428 46.9713 38.477 46.8227 37.7428 46.7912 37.7428 46.7912 36.216 46.7912 34.5135 46.1922 33.6488 46.4759 32.9203 46.7326 32.4318 47.4195 32.4282 48.1919 32.3109 48.8968 32.5893 49.6088 33.1533 50.0475 33.2029 50.0881 33.2704 50.1466 33.2794 50.1376 33.2884 50.1286 33.2344 50.043 33.2119 50.007 32.8342 49.4017 32.7357 48.663 32.9416 47.9802" transform="matrix(1.04492 0 0 1 0.174331 0)"/><path d="M53.9614 49.5431C53.1232 49.5854 52.2833 49.5327 51.4572 49.3854 51.4572 49.3854 51.2771 49.4935 51.2771 49.4935 51.9756 49.7476 52.7138 49.8741 53.457 49.8674 53.6957 49.9079 53.4119 50.007 53.4119 50.007 52.1418 51.0474 50.0295 50.7366 46.9218 50.7366 43.8141 50.7366 40.5578 51.6374 39.4903 51.795 39.0399 51.8671 38.7022 51.4933 38.4004 51.3446 38.1705 51.2248 37.9328 51.1213 37.6888 51.0339 40.8613 50.347 44.085 49.9223 47.3272 49.7638 49.6827 49.6016 51.6734 49.9349 51.9212 48.1559 52.0004 47.6897 51.9112 47.2105 51.6689 46.8047 51.373 46.3304 50.9393 45.958 50.4258 45.7373 50.3299 45.713 50.229 45.713 50.1331 45.7373 49.2449 46.0147 48.3302 46.1989 47.4037 46.2867 47.156 46.3183 47.2911 46.3903 47.2911 46.3903 48.205 46.4489 49.122 46.3345 49.9935 46.0525 50.0709 46.0282 50.1547 46.0282 50.2322 46.0525 50.7722 46.2332 51.1929 46.6619 51.3627 47.2055 51.8716 48.6018 50.7817 48.926 49.8493 48.9711 48.917 49.0161 44.9851 49.4215 43.4943 49.5116 42.0035 49.6016 38.0896 50.1376 36.6439 50.3493 35.5494 50.5159 34.1487 50.615 34.1487 50.615 33.7704 50.615 34.3919 50.7952 35.8827 51.0159 37.3735 51.2366 37.7698 51.8266 38.3824 52.2139 38.7906 52.3792 39.2379 52.4229 39.6705 52.34 40.2875 52.277 41.5982 51.8896 42.4359 51.7635 45.1927 51.3352 47.9856 51.1843 50.7727 51.3131 52.921 51.3807 53.6777 50.7636 54.4028 49.8629 54.7451 49.4395 53.9524 49.5701 53.9524 49.5701" transform="matrix(1.04492 0 0 1 0.174331 0)"/></g></svg>